{
  "asset": {
    "version": "2.0",
    "generator": "THREE.GLTFExporter"
  },
  "scenes": [
    {
      "nodes": [
        0
      ]
    }
  ],
  "scene": 0,
  "nodes": [
    {
      "children": [
        9
      ],
      "matrix": [
        0.01,
        0,
        0,
        0,
        0,
        0.01,
        0,
        0,
        0,
        0,
        0.01,
        0,
        0,
        0,
        0,
        1
      ]
    },
    {
      "name": "download.png",
      "mesh": 0
    },
    {
      "matrix": [
        0.5142964454107685,
        -0.6193444549740085,
        -0.5932213855979882,
        0,
        0.7693343678007967,
        0.6388463277820016,
        0,
        0,
        0.3789773037510255,
        -0.45638559965494085,
        0.8050393702603638,
        0,
        0,
        0,
        0,
        1
      ],
      "name": "Directional Light Main",
      "extensions": {
        "KHR_lights_punctual": {
          "light": 0
        }
      }
    },
    {
      "matrix": [
        0.732157196503968,
        0.4443506794934963,
        -0.5162347462551491,
        0,
        0.5188302509818792,
        -0.8548772839806192,
        0,
        0,
        -0.441317357775026,
        -0.2678382029651257,
        -0.8564471301597559,
        0,
        0,
        0,
        0,
        1
      ],
      "name": "Directional Light Blue",
      "extensions": {
        "KHR_lights_punctual": {
          "light": 1
        }
      }
    },
    {
      "matrix": [
        0.6405143112717623,
        -0.6857605053197973,
        -0.3456500345719589,
        0,
        -0.7308047543244337,
        -0.6825865593877484,
        0,
        0,
        -0.2359360678507297,
        0.25260268859759244,
        -0.9383634975852394,
        0,
        0,
        0,
        0,
        1
      ],
      "name": "Directional Light Red",
      "extensions": {
        "KHR_lights_punctual": {
          "light": 2
        }
      }
    },
    {
      "matrix": [
        1.0205921488655019,
        0,
        0.03349526975327956,
        0,
        0,
        1.0000000305787367,
        0,
        0,
        -0.03351693709613224,
        0,
        1.0212523471611146,
        0,
        3.187663027529055,
        41.427285507516686,
        -3.9376025075272096,
        1
      ],
      "name": "male_tshirt",
      "mesh": 1
    },
    {
      "matrix": [
        1.1363638990838956,
        0,
        0,
        0,
        0,
        1,
        0,
        0,
        0,
        0,
        1,
        0,
        -12,
        -6,
        2,
        1
      ],
      "name": "male_tshirt",
      "children": [
        5
      ]
    },
    {
      "matrix": [
        0.9764391231435622,
        0,
        -0.21579304621472728,
        0,
        0.0025283317169754044,
        0.9999313598658421,
        0.011440415008938477,
        0,
        0.21577823415108477,
        -0.011716465202773769,
        0.9763721002311526,
        0,
        50.330023557216975,
        -2.732851957857857,
        1227.7376631548277,
        1
      ],
      "camera": 0
    },
    {
      "matrix": [
        1,
        0,
        0,
        0,
        0,
        1,
        0,
        0,
        0,
        0,
        1,
        0,
        0,
        1,
        0,
        1
      ],
      "name": "Default Ambient Light"
    },
    {
      "name": "Scene",
      "children": [
        1,
        2,
        3,
        4,
        6,
        7,
        8
      ]
    }
  ],
  "bufferViews": [
    {
      "buffer": 0,
      "byteOffset": 0,
      "byteLength": 48,
      "target": 34962,
      "byteStride": 12
    },
    {
      "buffer": 0,
      "byteOffset": 48,
      "byteLength": 48,
      "target": 34962,
      "byteStride": 12
    },
    {
      "buffer": 0,
      "byteOffset": 96,
      "byteLength": 32,
      "target": 34962,
      "byteStride": 8
    },
    {
      "buffer": 0,
      "byteOffset": 128,
      "byteLength": 24,
      "target": 34963
    },
    {
      "buffer": 0,
      "byteOffset": 152,
      "byteLength": 688128,
      "target": 34962,
      "byteStride": 12
    },
    {
      "buffer": 0,
      "byteOffset": 688280,
      "byteLength": 688128,
      "target": 34962,
      "byteStride": 12
    },
    {
      "buffer": 0,
      "byteOffset": 1376408,
      "byteLength": 344064,
      "target": 34963
    }
  ],
  "buffers": [
    {
      "byteLength": 1720472,
      "uri": "data:application/octet-stream;base64,"
    }
  ],
  "accessors": [
    {
      "bufferView": 0,
      "componentType": 5126,
      "count": 4,
      "max": [
        57.5,
        57.5,
        0
      ],
      "min": [
        -57.5,
        -57.5,
        0
      ],
      "type": "VEC3"
    },
    {
      "bufferView": 1,
      "componentType": 5126,
      "count": 4,
      "max": [
        0,
        0,
        1
      ],
      "min": [
        0,
        0,
        1
      ],
      "type": "VEC3"
    },
    {
      "bufferView": 2,
      "componentType": 5126,
      "count": 4,
      "max": [
        1,
        1
      ],
      "min": [
        0,
        0
      ],
      "type": "VEC2"
    },
    {
      "bufferView": 3,
      "componentType": 5125,
      "count": 6,
      "max": [
        3
      ],
      "min": [
        0
      ],
      "type": "SCALAR"
    },
    {
      "bufferView": 4,
      "componentType": 5126,
      "count": 57344,
      "max": [
        230.2676544189453,
        206.6407470703125,
        112.670654296875
      ],
      "min": [
        -234.49221801757812,
        -289.60540771484375,
        -101.489013671875
      ],
      "type": "VEC3"
    },
    {
      "bufferView": 5,
      "componentType": 5126,
      "count": 57344,
      "max": [
        0.9998049139976501,
        0.9999711513519287,
        0.9999517798423767
      ],
      "min": [
        -0.999996542930603,
        -0.9993428587913513,
        -0.9998546838760376
      ],
      "type": "VEC3"
    },
    {
      "bufferView": 6,
      "componentType": 5125,
      "count": 86016,
      "max": [
        57343
      ],
      "min": [
        0
      ],
      "type": "SCALAR"
    }
  ],
  "meshes": [
    {
      "primitives": [
        {
          "mode": 4,
          "attributes": {
            "POSITION": 0,
            "NORMAL": 1,
            "TEXCOORD_0": 2
          },
          "extras": {
            "shape": {
              "points": [
                -57.5,
                57.5,
                -57.5,
                57.5,
                -57.5,
                57.5,
                0,
                57.5,
                57.5,
                57.5,
                57.5,
                57.5,
                57.5,
                0,
                57.5,
                -57.5,
                57.5,
                -57.5,
                57.5,
                -57.5,
                0,
                -57.5,
                -57.5,
                -57.5,
                -57.5,
                -57.5,
                -57.5,
                0
              ],
              "shapeHoles": [],
              "isClosed": true,
              "roundness": 0
            },
            "parameters": {
              "width": 115,
              "depth": 0,
              "cornerRadius": [
                0,
                0,
                0,
                0
              ],
              "cornerType": 0,
              "extrudeBevelSize": 0,
              "extrudeBevelSegments": 1,
              "height": 115,
              "type": "RectangleGeometry"
            },
            "ui": {
              "enabledIndieCorners": false
            },
            "type": "RectangleGeometry"
          },
          "indices": 3
        }
      ]
    },
    {
      "primitives": [
        {
          "mode": 4,
          "attributes": {
            "POSITION": 4,
            "NORMAL": 5
          },
          "extras": {
            "type": "SubdivGeometry",
            "parameters": {
              "width": 473.00001525878906,
              "height": 498.99993896484375,
              "depth": 220.19915771484375
            }
          },
          "indices": 6
        }
      ]
    }
  ],
  "extensions": {
    "KHR_lights_punctual": {
      "lights": [
        {
          "name": "Directional Light Main",
          "color": [
            1,
            1,
            1
          ],
          "intensity": 0.7,
          "type": "directional"
        },
        {
          "name": "Directional Light Blue",
          "color": [
            0.37519752477750856,
            0.3183972997572816,
            1
          ],
          "intensity": 10,
          "type": "directional"
        },
        {
          "name": "Directional Light Red",
          "color": [
            1,
            0.38671875,
            0.38671875
          ],
          "intensity": 10,
          "type": "directional"
        }
      ]
    }
  },
  "cameras": [
    {
      "type": "perspective",
      "perspective": {
        "aspectRatio": 2.1849217638691325,
        "yfov": 0.7853981633974483,
        "zfar": 100000,
        "znear": 70
      }
    }
  ],
  "extensionsUsed": [
    "KHR_lights_punctual"
  ]
}